<!-- downloaded from https://www.avis.it/application/themes/cmc3_theme_c5_version81/images/logo.svg -->
<svg xmlns="http://www.w3.org/2000/svg" viewBox="0 0 973.28697 287.01157">
  <defs>
    <style>
      .cls-1 {
        fill: #007dc4;
      }

      .cls-2 {
        fill: #ec1c24;
      }
    </style>
  </defs>
  <title>Risorsa 1</title>
  <g id="Livello_2" data-name="Livello 2">
    <g id="Livello_1-2" data-name="Livello 1">
      <g id="A_V_I_S" data-name="A V I S">
        <path class="cls-1" d="M718.51671,208.137c0,2.23621,3.57446,48.29175,6.35986,63.35511,21.28931,6.81982,43.80786,10.9635,63.7063,13.86877,0,0,8.65479,1.17249,23.91553,1.56372,15.261.39136,29.71533-.66443,29.71533-.66443,60.51611-1.11816,100.47681-43.08508,100.47681-92.42981,0-61.28393-49.7937-93.30774-102.3728-93.30774H828.02745c-1.34839,0-7.707-1.78613-7.707-7.15893,0-7.69556,17.98-7.13648,23.23047-7.13648,18.30884,0,46.977,6.1283,64.97827,11.54383l10.876-77.13636L920.89,9.97827,841.9442,1.174S829.32555,0,817.58531,0s-14.56445.5072-14.56445.5072C751.67.496,705.10948,34.65735,705.10948,92.91455a27.30071,27.30071,0,0,0,.02805,3.89855,14.80025,14.80025,0,0,0,.093,2.60465,33.28545,33.28545,0,0,0,.76687,5.162c1.7355,7.6794,8.729,41.1427,40.832,61.9961,19.99952,12.99121,44.198,18.77978,66.02564,18.77978H824.234s3.3877.16358,4.60792,1.38379,1.3728,4.11816,1.3728,4.11816l-.07129.74659c0,7.80554-18.19873,7.1477-22.32105,7.1477-28.811,0-61.50268-12.37683-92.72509-21.34436l3.41943,30.72949"/>
        <path class="cls-1" d="M72.71492,2.55866l93.50416-.21891C132.847,45.91762,102.57774,94.078,102.57774,139.90452c0,34.00753,21.34936,57.62415,53.50612,56.23729.66122-.02852,4.81324-.2386,10.34513-.83158a52.65185,52.65185,0,0,0,7.84323-1.80122l.01424.01791c-30.3781,65.30731-16.66216,91.474-73.98876,91.474a94.903,94.903,0,0,1-13.6926-.91044C27.689,277.04157-3.31454,241.203.28121,193.568c2.54386-33.90874,17.95744-66.54556,17.69474-66.66568-.65785-.3076,55.56082-123.49946,54.739-124.34367"/>
        <path class="cls-1" d="M186.85172,2.13094h48.36922l93.82186,279.098H210.126l-31.05293-89.04915-.19566-.44022c3.19622-1.93429,12.053-8.20122,14.44175-11.18385,9.56023-11.819,12.98085-23.25283,12.98085-35.1919,0-39.90578-44.57588-44.806-44.57588-86.87173,0-11.47767,11.58769-56.3937,25.12761-56.36115"/>
        <path class="cls-1" d="M255.4034,2.7888H375.59225l49.9364,140.6239c16.40148-9.72413,24.39341-47.14107,24.39341-61.77779,0-23.5043-12.63651-58.59944-36.16326-79.28708h130.597c23.40664,15.042,31.60848,46.60648,31.60848,67.03031a151.22537,151.22537,0,0,1-.93177,17.3007c-1.5133,15.42481-7.93693,31.485-15.21712,46.45066-19.10812,39.05035-89.9623,148.26446-105.82605,148.23191H351.88925L255.4034,2.7888"/>
        <path class="cls-1" d="M575.46442,2.34783c3.56818,5.26485,6.24925,11.355,6.29926,14.84648l0,245.58436a18.11073,18.11073,0,0,0,4.89436,12.23293c5.625,6.125,17.81074,6.21734,17.81074,6.21734l98.78813-.00006c-11.644-6.84375-9.40551-18.93774-9.46118-27.933l0-149.1199,2.2586-66.63425c0-14.9533-1.88576-35.30394-25.5012-35.19392h-95.0887"/>
        <path class="cls-2" d="M174.67129,3.09527c-13.0572,24.9087-18.40648,36.2887-18.40648,57.21659,0,45.14618,42.75611,49.22466,42.75611,84.15274,0,24.316-18.32,45.93538-44.13806,45.93538-30.35667,0-45.02493-27.86793-45.02493-49.12587,0-43.9068,27.594-100.27918,64.81336-138.17884"/>
        <path class="cls-1" d="M973.287,25.828A18.78619,18.78619,0,1,1,954.56432,7.55066,18.36772,18.36772,0,0,1,973.287,25.828Zm-32.879,0c0,8.13672,6.01961,14.60157,14.2657,14.60157,8.02344,0,13.92969-6.46485,13.92969-14.48829,0-8.13671-5.90625-14.71289-14.03906-14.71289C946.4276,11.22839,940.408,17.80457,940.408,25.828Zm11.25789,9.58594H947.4315V17.1366a36.85357,36.85357,0,0,1,7.01954-.5586c3.457,0,5.01562.5586,6.35156,1.33789a5.06472,5.06472,0,0,1,1.78515,4.01172c0,2.00586-1.5625,3.56641-3.78906,4.23633v.22266c1.78125.668,2.78516,2.00586,3.34375,4.457.55469,2.78711.89063,3.90039,1.33594,4.57031H958.908c-.55461-.66992-.89055-2.33984-1.44914-4.459-.332-2.00586-1.44922-2.89649-3.78906-2.89649h-2.00391Zm.10937-10.36523h2.00782c2.33984,0,4.23437-.7793,4.23437-2.67383,0-1.67188-1.22656-2.78711-3.90234-2.78711a10.152,10.152,0,0,0-2.33985.22265Z"/>
      </g>
    </g>
  </g>
</svg>
